<?xml version="1.0" encoding="utf-8"?>
<!-- Generator: Adobe Illustrator 22.1.0, SVG Export Plug-In . SVG Version: 6.00 Build 0)  -->
<svg version="1.1" id="Layer_1" xmlns="http://www.w3.org/2000/svg" xmlns:xlink="http://www.w3.org/1999/xlink" x="0px" y="0px"
	 viewBox="0 0 4500 4500" style="enable-background:new 0 0 4500 4500;" xml:space="preserve">
<style type="text/css">
	.st0{fill-rule:evenodd;clip-rule:evenodd;fill:#FFFFFF;}
	.st1{fill-rule:evenodd;clip-rule:evenodd;fill:#B1B6C0;}
	.st2{fill-rule:evenodd;clip-rule:evenodd;fill:#47BAEC;}
	.st3{fill:#FFFFFF;stroke:#FFFFFF;stroke-width:5;}
	.st4{fill:#47BAEC;stroke:#47BAEC;stroke-width:5;stroke-miterlimit:10;}
	.st5{fill:#FFFFFF;}
</style>
<g>
	<path class="st0" d="M2736.7,3066.4c-141,54.8-294.3,84.9-454.6,84.9c-630.1,0-1152-464.2-1242.4-1069.2l540.7,313.6
		c140.6,196.7,361.9,331.9,615.5,357.1L2736.7,3066.4L2736.7,3066.4z M2282.1,638.7c160,0,313,30,453.7,84.5L2189.6,1038
		c-246.8,26.4-462.4,156.9-602.2,346.9l-546.3,314.7C1135,1098.6,1654.9,638.7,2282.1,638.7z"/>
	<path class="st1" d="M3218.3,1057.5c199,222.3,320.1,515.8,320.1,837.5c0,316.9-117.4,606.3-311.1,827.4l-350.8-203.2
		c164.8-157,267.6-378.6,267.6-624.2c0-250.9-107.3-476.8-278.4-634.3L3218.3,1057.5L3218.3,1057.5z"/>
	<polygon class="st2" points="835.8,1890.6 3458.9,379.7 3458.9,845.9 1655.9,1885 3455.6,2927.5 3455.6,3410.3 	"/>
</g>
<g>
	<path class="st3" d="M1234.4,3488.3c0,105.6-89.1,192.7-194.7,192.7s-194.7-87.2-194.7-192.7s88.6-192.7,194.7-192.7
		C1145.2,3295.6,1234.4,3382.7,1234.4,3488.3z M868.8,3488.3c0,92.6,77.2,170.3,170.8,170.3c93.1,0,170.8-78.2,170.8-170.3
		c0-92.6-77.7-170.3-170.8-170.3C946,3318,868.8,3395.7,868.8,3488.3z"/>
	<path class="st3" d="M1440,3445.9v137.9c0,23.4,0.5,46.8-13.9,66.2c-15.9,20.9-42.8,30.9-68.7,30.9s-52.8-10-68.7-30.9
		c-14.4-19.4-13.9-42.8-13.9-66.2v-137.9h22.4v130c0,44.3,5,84.2,60.3,84.2c55.3,0,60.3-39.8,60.3-84.2v-130H1440z"/>
	<path class="st3" d="M1525.7,3676h-22.4v-209.2h-25.4v-20.9h25.4v-82.2h22.4v82.2h40.3v20.9h-40.3V3676z"/>
	<path class="st3" d="M1689,3487.8c-7.5-15.9-22.4-25.9-40.3-25.9c-19.4,0-39.3,15.9-39.3,35.9c0,55.3,112,28.4,112,111.6
		c0,42.3-32.9,71.7-74.2,71.7c-38.3,0-69.7-23.4-79.2-60.8l21.9-7c8.5,27.4,26.9,46.8,57.3,46.8c28.9,0,51.8-22.9,51.8-51.8
		c0-28.4-21.9-37.3-44.8-45.3c-31.4-11.5-67.2-24.9-67.2-63.7c0-34.9,29.4-58.3,62.7-58.3c23.4,0,48.8,15.4,58.8,36.9L1689,3487.8z"
		/>
	<path class="st3" d="M1807.1,3369.3c0,11.5-9,20.4-20.4,20.4s-20.4-9-20.4-20.4c0-11,9-20.4,20.4-20.4S1807.1,3358.3,1807.1,3369.3
		z M1797.6,3676h-22.4v-230.1h22.4V3676z"/>
	<path class="st3" d="M2042.6,3634.7h-1c-16.9,29.4-53.8,46.3-87.6,46.3c-69.7,0-113.5-54.3-113.5-121.5s43.3-118.5,112.5-118.5
		c35.4,0,69.2,15.9,88.6,44.8h1v-220.6h22.4V3676h-22.4V3634.7z M2044.1,3557c0-53.3-36.4-95.1-92.1-95.1
		c-52.8,0-89.1,47.8-89.1,97.6c0,52.8,34.9,100.6,90.6,100.6C2012.2,3660.1,2044.1,3612.3,2044.1,3557z"/>
	<path class="st3" d="M2125.2,3563c-1.5,58.3,38.8,97.1,92.1,97.1c35.9,0,64.7-21.4,81.2-52.3l18.9,11
		c-20.9,39.8-57.8,62.3-103.1,62.3c-68.2,0-111.6-55.3-111.6-120.5c0-64.2,44.3-119.5,111.6-119.5c69.7,0,111.1,55.8,110.6,122
		H2125.2z M2302.5,3542.1c-5.5-42.3-40.3-80.2-87.6-80.2c-46.8,0-85.7,36.9-89.6,80.2H2302.5z"/>
	<path class="st4" d="M2620.3,3621.2h1l111.1-320.7h23.9l-136.5,387.9l-135-387.9h23.9L2620.3,3621.2z"/>
	<path class="st4" d="M2803.5,3676h-22.4v-230.1h22.4V3676z"/>
	<path class="st4" d="M2876.7,3563c-1.5,58.3,38.8,97.1,92.1,97.1c35.9,0,64.7-21.4,81.2-52.3l18.9,11
		c-20.9,39.8-57.8,62.3-103.1,62.3c-68.2,0-111.6-55.3-111.6-120.5c0-64.2,44.3-119.5,111.6-119.5c69.7,0,111.1,55.8,110.6,122
		H2876.7z M3054,3542.1c-5.5-42.3-40.3-80.2-87.6-80.2c-46.8,0-85.7,36.9-89.6,80.2H3054z"/>
	<path class="st4" d="M3186.4,3634.7l81.2-201.2l81.7,201.2l79.7-188.7h22.9l-104.1,242.5l-81.2-198.7l-80.7,198.7l-103.6-242.5
		h22.9L3186.4,3634.7z"/>
</g>
<polygon style="fill:none;" points="6648.4,1447.6 6642.4,1447.6 6642.4,1447.6 6648.4,1447.6 "/>
<circle class="st4" cx="2792.6" cy="3369.3" r="20.4"/>
<g>
	<path class="st5" d="M2331.5,540.6h-24.2l-9-49.9h-51.5l-8.7,49.9H2214l47.7-242.8h21.3L2331.5,540.6z M2294.8,471l-16.1-93.1
		c-2.9-16.4-4.2-33.2-6.1-49.6h-1.3c-2.3,16.4-3.9,33.2-6.4,49.6l-14.2,93.1H2294.8z"/>
	<path class="st5" d="M2358.9,388.6c8.4-9.7,19.6-15.8,32.5-15.8c29.3,0,31.9,27,31.9,49.6v118.2h-20.9V424.7
		c0-19.6-1.3-34.8-18.7-34.8c-23.8,0-24.8,26.1-24.8,43.5v107.2H2338V375.4h20.9V388.6z"/>
	<path class="st5" d="M2586.5,540.6h-20.9v-12.9h-0.6c-6.1,9.3-15.5,15.5-27.4,15.5c-26.4,0-39.3-14.8-39.3-86.9
		c0-37,1.3-83.4,41.2-83.4c11.6,0,19,4.8,25.4,13.8h0.6v-11.3h20.9V540.6z M2544.4,389.9c-23.2,0-24.5,36.7-24.5,64.7
		c0,68.3,11.3,71.5,23.5,71.5c20.3,0,24.2-19,24.2-70.8C2567.6,419.5,2565,389.9,2544.4,389.9z"/>
	<path class="st5" d="M2628.4,386.7h0.6c6.4-9,13.8-13.8,25.8-13.8c38.3,0,40.9,49.9,40.9,83.4c0,37.4-1,86.9-39.3,86.9
		c-11.9,0-21.3-6.1-27.4-15.5h-0.6v76h-20.9V375.4h20.9V386.7z M2674.1,456.2c0-25.4-0.3-66.3-24.5-66.3
		c-22.2,0-23.2,34.1-23.2,63.4c0,31.9,1.3,72.8,24.2,72.8C2669.9,526.1,2674.1,507.1,2674.1,456.2z"/>
	<path class="st5" d="M2732.7,386.7h0.6c6.4-9,13.8-13.8,25.8-13.8c38.3,0,40.9,49.9,40.9,83.4c0,37.4-1,86.9-39.3,86.9
		c-11.9,0-21.3-6.1-27.4-15.5h-0.6v76h-20.9V375.4h20.9V386.7z M2778.5,456.2c0-25.4-0.3-66.3-24.5-66.3
		c-22.2,0-23.2,34.1-23.2,63.4c0,31.9,1.3,72.8,24.2,72.8C2774.3,526.1,2778.5,507.1,2778.5,456.2z"/>
	<path class="st5" d="M2875.1,283h20.9v103.7h0.6c6.1-9.3,13.8-13.8,25.8-13.8c38.3,0,40.9,46,40.9,83.4c0,41.9-3.2,86.9-39.3,86.9
		c-11.9,0-21.3-6.1-27.4-15.5h-0.6v12.9h-20.9V283z M2941.7,454.6c0-37.7-3.5-64.7-24.5-64.7c-25.4,0-23.2,48.6-23.2,63.4
		c0,20.3-2.6,72.8,24.2,72.8C2935.3,526.1,2941.7,511.3,2941.7,454.6z"/>
	<path class="st5" d="M3012.2,603.7h-21.9l16.4-67.6l-39.3-160.7h21.3l27.7,133.3h1c2.9-14.2,5.5-28.3,8.7-42.5l21.3-90.8h21.9
		L3012.2,603.7z"/>
</g>
</svg>
