<?xml version="1.0" encoding="utf-8"?>
<!-- Generator: Adobe Illustrator 22.1.0, SVG Export Plug-In . SVG Version: 6.00 Build 0)  -->
<svg version="1.1" id="Layer_1" xmlns="http://www.w3.org/2000/svg" xmlns:xlink="http://www.w3.org/1999/xlink" x="0px" y="0px"
	 viewBox="0 0 4500 4500" style="enable-background:new 0 0 4500 4500;" xml:space="preserve">
<style type="text/css">
	.st0{font-family:'BelleroseLight';}
	.st1{font-size:207.4483px;}
	.st2{fill-rule:evenodd;clip-rule:evenodd;fill:#FFFFFF;}
	.st3{fill-rule:evenodd;clip-rule:evenodd;fill:#B1B6C0;}
	.st4{fill-rule:evenodd;clip-rule:evenodd;fill:#47BAEC;}
	.st5{fill:#FFFFFF;stroke:#FFFFFF;stroke-width:5;}
	.st6{fill:#47BAEC;stroke:#47BAEC;stroke-width:5;stroke-miterlimit:10;}
</style>
<text transform="matrix(1 0 0 2 1704.0547 586.9253)" class="st0 st1"> </text>
<text transform="matrix(1 0 0 2 2411.9849 586.9253)" class="st0 st1"> </text>
<g>
	<path class="st2" d="M2736.7,3066.4c-141,54.8-294.3,84.9-454.6,84.9c-630.1,0-1152-464.2-1242.4-1069.2l540.7,313.6
		c140.6,196.7,361.9,331.9,615.5,357.1L2736.7,3066.4L2736.7,3066.4z M2282.1,638.7c160,0,313,30,453.7,84.5L2189.6,1038
		c-246.8,26.4-462.4,156.9-602.2,346.9l-546.3,314.7C1135,1098.6,1654.9,638.7,2282.1,638.7z"/>
	<path class="st3" d="M3218.3,1057.5c199,222.3,320.1,515.8,320.1,837.5c0,316.9-117.4,606.3-311.1,827.4l-350.8-203.2
		c164.8-157,267.6-378.6,267.6-624.2c0-250.9-107.3-476.8-278.4-634.3L3218.3,1057.5L3218.3,1057.5z"/>
	<polygon class="st4" points="835.8,1890.6 3458.9,379.7 3458.9,845.9 1655.9,1885 3455.6,2927.5 3455.6,3410.3 	"/>
</g>
<g>
	<path class="st5" d="M1234.4,3488.3c0,105.6-89.1,192.7-194.7,192.7s-194.7-87.2-194.7-192.7s88.6-192.7,194.7-192.7
		C1145.2,3295.6,1234.4,3382.7,1234.4,3488.3z M868.8,3488.3c0,92.6,77.2,170.3,170.8,170.3c93.1,0,170.8-78.2,170.8-170.3
		c0-92.6-77.7-170.3-170.8-170.3C946,3318,868.8,3395.7,868.8,3488.3z"/>
	<path class="st5" d="M1440,3445.9v137.9c0,23.4,0.5,46.8-13.9,66.2c-15.9,20.9-42.8,30.9-68.7,30.9s-52.8-10-68.7-30.9
		c-14.4-19.4-13.9-42.8-13.9-66.2v-137.9h22.4v130c0,44.3,5,84.2,60.3,84.2c55.3,0,60.3-39.8,60.3-84.2v-130H1440z"/>
	<path class="st5" d="M1525.7,3676h-22.4v-209.2h-25.4v-20.9h25.4v-82.2h22.4v82.2h40.3v20.9h-40.3V3676z"/>
	<path class="st5" d="M1689,3487.8c-7.5-15.9-22.4-25.9-40.3-25.9c-19.4,0-39.3,15.9-39.3,35.9c0,55.3,112,28.4,112,111.6
		c0,42.3-32.9,71.7-74.2,71.7c-38.3,0-69.7-23.4-79.2-60.8l21.9-7c8.5,27.4,26.9,46.8,57.3,46.8c28.9,0,51.8-22.9,51.8-51.8
		c0-28.4-21.9-37.3-44.8-45.3c-31.4-11.5-67.2-24.9-67.2-63.7c0-34.9,29.4-58.3,62.7-58.3c23.4,0,48.8,15.4,58.8,36.9L1689,3487.8z"
		/>
	<path class="st5" d="M1807.1,3369.3c0,11.5-9,20.4-20.4,20.4s-20.4-9-20.4-20.4c0-11,9-20.4,20.4-20.4S1807.1,3358.3,1807.1,3369.3
		z M1797.6,3676h-22.4v-230.1h22.4V3676z"/>
	<path class="st5" d="M2042.6,3634.7h-1c-16.9,29.4-53.8,46.3-87.6,46.3c-69.7,0-113.5-54.3-113.5-121.5s43.3-118.5,112.5-118.5
		c35.4,0,69.2,15.9,88.6,44.8h1v-220.6h22.4V3676h-22.4V3634.7z M2044.1,3557c0-53.3-36.4-95.1-92.1-95.1
		c-52.8,0-89.1,47.8-89.1,97.6c0,52.8,34.9,100.6,90.6,100.6C2012.2,3660.1,2044.1,3612.3,2044.1,3557z"/>
	<path class="st5" d="M2125.2,3563c-1.5,58.3,38.8,97.1,92.1,97.1c35.9,0,64.7-21.4,81.2-52.3l18.9,11
		c-20.9,39.8-57.8,62.3-103.1,62.3c-68.2,0-111.6-55.3-111.6-120.5c0-64.2,44.3-119.5,111.6-119.5c69.7,0,111.1,55.8,110.6,122
		H2125.2z M2302.5,3542.1c-5.5-42.3-40.3-80.2-87.6-80.2c-46.8,0-85.7,36.9-89.6,80.2H2302.5z"/>
	<path class="st6" d="M2620.3,3621.2h1l111.1-320.7h23.9l-136.5,387.9l-135-387.9h23.9L2620.3,3621.2z"/>
	<path class="st6" d="M2803.5,3676h-22.4v-230.1h22.4V3676z"/>
	<path class="st6" d="M2876.7,3563c-1.5,58.3,38.8,97.1,92.1,97.1c35.9,0,64.7-21.4,81.2-52.3l18.9,11
		c-20.9,39.8-57.8,62.3-103.1,62.3c-68.2,0-111.6-55.3-111.6-120.5c0-64.2,44.3-119.5,111.6-119.5c69.7,0,111.1,55.8,110.6,122
		H2876.7z M3054,3542.1c-5.5-42.3-40.3-80.2-87.6-80.2c-46.8,0-85.7,36.9-89.6,80.2H3054z"/>
	<path class="st6" d="M3186.4,3634.7l81.2-201.2l81.7,201.2l79.7-188.7h22.9l-104.1,242.5l-81.2-198.7l-80.7,198.7l-103.6-242.5
		h22.9L3186.4,3634.7z"/>
</g>
<polygon style="fill:none;" points="6648.4,1447.6 6642.4,1447.6 6642.4,1447.6 6648.4,1447.6 "/>
<circle class="st6" cx="2792.6" cy="3369.3" r="20.4"/>
</svg>
