<?xml version="1.0" encoding="utf-8"?>
<!-- Generator: Adobe Illustrator 22.1.0, SVG Export Plug-In . SVG Version: 6.00 Build 0)  -->
<svg version="1.1" id="Layer_1" xmlns="http://www.w3.org/2000/svg" xmlns:xlink="http://www.w3.org/1999/xlink" x="0px" y="0px"
	 viewBox="0 0 4500 4500" style="enable-background:new 0 0 4500 4500;" xml:space="preserve">
<style type="text/css">
	.st0{font-family:'BelleroseLight';}
	.st1{font-size:207.4483px;}
	.st2{fill-rule:evenodd;clip-rule:evenodd;}
	.st3{fill-rule:evenodd;clip-rule:evenodd;fill:#7E7F84;}
	.st4{fill-rule:evenodd;clip-rule:evenodd;fill:#47BAEC;}
</style>
<text transform="matrix(1 0 0 2 1704.0547 586.9253)" class="st0 st1"> </text>
<text transform="matrix(1 0 0 2 2411.9849 586.9253)" class="st0 st1"> </text>
<g>
	<path class="st2" d="M2736.7,3066.4c-141,54.8-294.3,84.9-454.6,84.9c-630.1,0-1152-464.2-1242.4-1069.2l540.7,313.6
		c140.6,196.7,361.9,331.9,615.5,357.1L2736.7,3066.4L2736.7,3066.4z M2282.1,638.7c160,0,313,30,453.7,84.5L2189.6,1038
		c-246.8,26.4-462.4,156.9-602.2,346.9l-546.3,314.7C1135,1098.6,1654.9,638.7,2282.1,638.7z"/>
	<path class="st3" d="M3218.3,1057.5c199,222.3,320.1,515.8,320.1,837.5c0,316.9-117.4,606.3-311.1,827.4l-350.8-203.2
		c164.8-157,267.6-378.6,267.6-624.2c0-250.9-107.3-476.8-278.4-634.3L3218.3,1057.5L3218.3,1057.5z"/>
	<polygon class="st4" points="835.8,1890.6 3458.9,379.7 3458.9,845.9 1655.9,1885 3455.6,2927.5 3455.6,3410.3 	"/>
</g>
<polygon style="fill:none;" points="6648.4,1447.6 6642.4,1447.6 6642.4,1447.6 6648.4,1447.6 "/>
</svg>
